<?xml version="1.0" encoding="UTF-8"?>
<svg width="32px" height="32px" viewBox="0 0 32 32" version="1.1" xmlns="http://www.w3.org/2000/svg">
    <g fill="#F7931A">
        <path d="M31.7,16c0,8.7-7.1,15.8-15.8,15.8C7.1,31.8,0,24.7,0,16C0,7.3,7.1,0.2,15.8,0.2C24.6,0.2,31.7,7.3,31.7,16z"/>
    </g>
    <path d="M23.2,14.2c0.3-2.1-1.3-3.2-3.4-4l0.7-2.8l-1.7-0.4l-0.7,2.7c-0.4-0.1-0.9-0.2-1.3-0.3l0.7-2.7L16,6.3l-0.7,2.8 c-0.4-0.1-0.7-0.2-1.1-0.2l0,0l-2.3-0.6l-0.4,1.8c0,0,1.3,0.3,1.2,0.3c0.7,0.2,0.8,0.7,0.8,1.1l-0.8,3.2c0,0.1,0.1,0.2,0.2,0.2 c0,0-0.1,0-0.2-0.1l-1.1,4.5c-0.1,0.2-0.3,0.5-0.8,0.4c0,0-1.2-0.3-1.2-0.3L9,21.7l2.2,0.6c0.4,0.1,0.8,0.2,1.2,0.3l-0.7,2.8 l1.7,0.4l0.7-2.8c0.4,0.1,0.9,0.2,1.3,0.3l-0.7,2.8l1.7,0.4l0.7-2.8c2.7,0.5,4.7,0.3,5.6-2.1c0.7-1.9,0-3.1-1.5-3.8 C22.4,17.3,23,16.1,23.2,14.2L23.2,14.2z M19.4,19.1c-0.5,1.9-3.9,0.9-4.9,0.6l0.9-3.5C16.4,16.5,19.9,17.1,19.4,19.1z M19.9,14.2 c-0.5,1.7-3.3,0.8-4.2,0.6l0.8-3.2C17.4,11.8,20.4,12.3,19.9,14.2z" fill="white"/>
</svg>
